<svg id="圖層_1" data-name="圖層 1" xmlns="http://www.w3.org/2000/svg" viewBox="0 0 1000 1000"><defs><style>.cls-1{fill:#8fabdd;}.cls-2{fill:#ff993e;}.cls-3,.cls-4{fill:none;stroke-miterlimit:10;stroke-width:60px;}.cls-3{stroke:#ff993e;}.cls-4{stroke:#8fabdd;}</style></defs><polygon class="cls-1" points="660.42 469.52 644.46 469.52 644.46 469.53 644.38 469.53 644.13 522.52 616.92 522.4 617.17 469.4 608.49 469.36 608.49 469.36 591.48 469.28 591.48 469.28 582.8 469.24 582.55 522.75 572.34 522.7 572.58 469.2 566.97 469.17 563.9 469.16 555.54 469.12 552.03 469.1 546.86 469.08 546.59 527.54 536.31 527.53 536.29 530.31 546.57 530.31 546.57 530.4 555.25 530.44 555.5 477.45 563.86 477.49 563.62 530.48 570.19 530.51 572.3 530.52 582.51 530.57 585.13 530.58 591.19 530.61 591.46 472.07 608.47 472.15 608.2 530.69 614.78 530.72 616.88 530.73 644.1 530.85 645.99 530.86 652.33 530.89 652.6 472.3 660.4 472.3 660.42 469.52"/><polygon class="cls-2" points="433.87 469.51 425.19 469.47 403.49 469.37 401.38 469.36 394.81 469.33 394.56 522.1 384.35 522.05 384.59 469.29 378.98 469.26 375.91 469.25 367.55 469.21 364.04 469.19 358.87 469.17 358.6 527.36 343.58 527.35 343.56 530.8 367.29 530.82 367.3 527.37 367.28 527.37 367.51 477.8 375.87 477.84 375.63 530.57 382.2 530.6 384.31 530.61 394.52 530.66 397.14 530.67 403.2 530.7 403.45 477.96 425.15 478.07 424.9 530.8 433.58 530.84 433.83 478.11 456.81 478.21 456.85 469.62 433.87 469.51"/><path class="cls-3" d="M519.39,735.27A164,164,0,1,1,338.07,501.49"/><path class="cls-3" d="M536.85,660.07c-2.94,70.21-35.53,103.34-35.53,103.34"/><path class="cls-4" d="M498.51,236.91s-82.32,83.87,1.15,263.93c30.54,65.89,38.89,118.72,37.19,159.23"/><path class="cls-4" d="M463.23,334.25A164,164,0,1,1,660.38,498.9"/></svg>